<svg width="146" height="151" viewBox="0 0 146 151" fill="none" xmlns="http://www.w3.org/2000/svg">
<g filter="url(#filter0_d_105_4)">
<circle cx="73" cy="74" r="69" fill="#E11D48"/>
</g>
<path d="M95.992 31.912C96.504 31.912 97.2293 32.04 98.168 32.296C98.2533 32.3813 98.3387 32.4667 98.424 32.552C98.5093 32.552 98.6373 32.6373 98.808 32.808L98.68 37.416L98.552 37.288L98.296 37.672L98.424 49.832C97.656 50.344 97.272 50.8133 97.272 51.24C97.3573 51.6667 97.3147 51.88 97.144 51.88C96.9733 51.88 96.76 51.88 96.504 51.88C96.3333 51.7947 96.1627 51.752 95.992 51.752C95.9067 51.8373 95.8213 51.88 95.736 51.88C95.6507 51.88 95.5227 51.9227 95.352 52.008C95.2667 52.008 95.1387 52.008 94.968 52.008C94.5413 51.9227 94.1147 51.88 93.688 51.88C93.2613 51.7947 92.8347 51.752 92.408 51.752C91.64 51.752 90.9147 51.7947 90.232 51.88C89.5493 51.9653 88.8667 52.008 88.184 52.008C87.3307 52.008 86.8187 51.9653 86.648 51.88L81.784 52.136C81.6133 52.5627 81.4853 53.2027 81.4 54.056C81.3147 54.9093 81.272 55.8053 81.272 56.744C81.272 57.4267 81.272 58.1093 81.272 58.792C81.3573 59.3893 81.4 59.8587 81.4 60.2L81.144 74.152C81.144 75.7733 81.144 76.968 81.144 77.736C81.2293 78.4187 81.3147 78.9307 81.4 79.272C81.4853 79.6133 81.528 79.8693 81.528 80.04C81.6133 80.2107 81.6987 80.5093 81.784 80.936C81.8693 81.2773 81.912 81.9173 81.912 82.856C81.9973 83.7947 82.04 85.16 82.04 86.952C82.04 87.6347 81.9973 88.616 81.912 89.896C81.912 91.0907 81.8693 92.456 81.784 93.992C81.6987 95.528 81.6133 97.1067 81.528 98.728C81.528 100.349 81.528 101.843 81.528 103.208C81.528 105.939 81.6133 108.669 81.784 111.4C81.9547 114.045 82.1253 116.861 82.296 119.848L80.888 120.616L80.632 120.36C76.8773 120.531 73.7627 120.616 71.288 120.616C68.8987 120.616 66.9787 120.659 65.528 120.744C63.8213 120.829 62.456 120.872 61.432 120.872H61.56L61.432 120.616C61.432 120.275 61.5173 119.976 61.688 119.72C61.8587 119.379 61.944 119.123 61.944 118.952V118.696C62.0293 118.099 62.072 117.629 62.072 117.288C62.072 116.947 62.072 116.691 62.072 116.52V115.368C61.9867 114.941 61.9013 114.557 61.816 114.216C61.816 113.789 61.7307 113.363 61.56 112.936L61.304 113.704V115.624C61.304 116.477 61.1333 117.075 60.792 117.416V116.904C60.8773 115.795 60.9627 114.813 61.048 113.96C61.1333 113.107 61.176 112.211 61.176 111.272C61.2613 110.333 61.304 109.267 61.304 108.072C61.3893 106.877 61.432 105.427 61.432 103.72C61.432 102.44 61.3893 101.032 61.304 99.496C61.304 97.8747 61.304 96.0827 61.304 94.12C61.3893 93.1813 61.5173 92.6267 61.688 92.456C61.688 92.2853 61.6453 91.944 61.56 91.432C61.56 90.8347 61.56 90.152 61.56 89.384C61.56 88.9573 61.56 88.5307 61.56 88.104C61.6453 87.6773 61.688 87.2507 61.688 86.824V86.44C61.8587 85.928 61.9867 85.5013 62.072 85.16C62.2427 84.8187 62.328 84.264 62.328 83.496C62.328 82.5573 62.2853 82.0027 62.2 81.832L61.944 81.704H62.072C61.9013 80.8507 61.816 80.424 61.816 80.424C61.816 80.2533 61.8587 79.6987 61.944 78.76C62.0293 77.736 62.072 76.6693 62.072 75.56C62.072 74.9627 62.0293 74.408 61.944 73.896C61.944 73.384 61.9013 72.9147 61.816 72.488L62.328 72.744C62.4133 72.6587 62.456 72.4027 62.456 71.976C62.456 71.3787 62.4133 71.0373 62.328 70.952L62.072 70.696C61.9867 70.0987 61.944 69.5867 61.944 69.16C61.944 68.7333 61.944 68.4347 61.944 68.264V67.624H61.688L61.816 66.728C61.816 65.6187 61.7733 64.4667 61.688 63.272C61.688 61.992 61.6453 60.84 61.56 59.816C61.4747 58.792 61.3893 57.896 61.304 57.128C61.304 56.36 61.304 55.848 61.304 55.592L61.176 53.672L61.944 51.752V51.88C61.5173 51.88 60.6213 51.7093 59.256 51.368C58.3173 51.7093 57.1653 51.88 55.8 51.88C55.1173 51.88 54.392 51.88 53.624 51.88C52.9413 51.7947 52.2587 51.752 51.576 51.752C50.8933 51.752 50.3387 51.7947 49.912 51.88C49.5707 51.88 48.8027 51.88 47.608 51.88C47.1813 51.88 46.7547 51.88 46.328 51.88C45.9867 51.88 45.5173 51.7947 44.92 51.624C44.7493 50.6 44.664 49.6187 44.664 48.68C44.664 47.656 44.664 46.6747 44.664 45.736V42.28C44.664 41.5973 44.664 40.9573 44.664 40.36C44.664 39.6773 44.6213 39.0373 44.536 38.44L44.28 35.368C44.28 34.6 44.3653 33.832 44.536 33.064C44.792 32.296 44.92 31.8693 44.92 31.784C44.92 31.6133 44.8347 31.4853 44.664 31.4C44.4933 31.2293 44.408 31.0587 44.408 30.888H44.536C44.9627 30.888 46.0293 30.9733 47.736 31.144C49.4427 31.3147 51.4053 31.4 53.624 31.4C54.2213 31.4 54.776 31.4 55.288 31.4C55.8853 31.3147 56.44 31.2293 56.952 31.144L61.816 31.272C62.4987 31.272 63.1387 31.3147 63.736 31.4C64.3333 31.4 64.9733 31.4 65.656 31.4C67.6187 31.4 69.5387 31.3573 71.416 31.272C73.3787 31.1867 75.1707 31.0587 76.792 30.888L77.304 31.272C80.2907 31.4427 83.32 31.6133 86.392 31.784C89.5493 31.8693 92.7493 31.912 95.992 31.912ZM90.744 49.704C92.7067 49.448 94.6693 49.32 96.632 49.32C96.632 47.1013 96.6747 44.9253 96.76 42.792C96.9307 40.6587 97.016 38.44 97.016 36.136C97.016 35.4533 96.9307 34.8133 96.76 34.216C96.6747 33.5333 96.3333 33.192 95.736 33.192H93.816C93.2187 33.192 92.5787 33.3627 91.896 33.704C91.64 33.704 91.4693 33.6613 91.384 33.576C91.4693 33.4907 91.512 33.2347 91.512 32.808V32.68C90.8293 33.3627 90.232 33.704 89.72 33.704C89.464 33.704 89.208 33.5333 88.952 33.192C88.8667 33.5333 88.5253 33.704 87.928 33.704C87.7573 33.704 87.6293 33.704 87.544 33.704C87.544 33.6187 87.4587 33.576 87.288 33.576L87.8 33.32H86.904V33.704C86.7333 33.7893 86.648 33.832 86.648 33.832H86.392L86.52 33.704C86.52 33.704 86.4347 33.704 86.264 33.704C86.0933 33.6187 85.7093 33.576 85.112 33.576C84.6 33.4907 83.7893 33.448 82.68 33.448C81.5707 33.3627 80.12 33.32 78.328 33.32C75.6827 33.32 72.6533 33.3627 69.24 33.448C65.912 33.5333 62.8827 33.6613 60.152 33.832C59.8107 33.7467 59.64 33.6187 59.64 33.448L52.856 33.064L52.472 33.576C51.7893 33.4053 51.32 33.32 51.064 33.32C50.3813 33.32 49.6987 33.4053 49.016 33.576C48.3333 33.6613 47.6507 33.704 46.968 33.704C46.2 33.704 45.7733 33.6613 45.688 33.576V33.96C45.688 34.216 45.6453 34.5573 45.56 34.984C45.56 35.3253 45.56 35.7947 45.56 36.392C45.56 36.8187 45.6027 37.3733 45.688 38.056C45.7733 38.7387 45.9013 39.5067 46.072 40.36L46.328 41.896C46.4133 43.2613 46.4133 44.5413 46.328 45.736C46.328 46.9307 46.4133 48.2533 46.584 49.704C47.6933 50.0453 48.76 50.2587 49.784 50.344C50.8933 50.4293 52.0453 50.472 53.24 50.472C54.8613 50.472 56.44 50.4293 57.976 50.344C59.5973 50.2587 61.1333 50.216 62.584 50.216C62.7547 50.3013 63.0107 50.344 63.352 50.344C63.7787 50.344 64.0773 50.5147 64.248 50.856C64.1627 51.112 64.0347 52.0933 63.864 53.8C64.12 59.944 64.248 66.216 64.248 72.616C64.248 80.1253 64.12 87.6347 63.864 95.144C63.6933 102.653 63.608 110.035 63.608 117.288C63.608 117.971 68.728 118.611 78.968 119.208C78.968 118.099 79.0533 116.989 79.224 115.88C79.48 114.685 79.608 113.576 79.608 112.552V98.088C79.608 97.576 79.608 97.064 79.608 96.552C79.608 96.04 79.6507 95.5707 79.736 95.144L79.096 56.232V56.488C78.9253 55.6347 78.84 55.208 78.84 55.208C78.84 54.7813 78.84 54.44 78.84 54.184C78.9253 53.8427 78.968 53.544 78.968 53.288C78.968 53.1173 78.9253 52.9467 78.84 52.776C78.84 52.6053 78.84 52.4773 78.84 52.392C79.2667 51.7093 79.608 51.112 79.864 50.6C80.12 50.0027 80.3333 49.704 80.504 49.704V49.832V49.576C80.9307 49.576 81.4427 49.6613 82.04 49.832C82.7227 49.9173 83.32 49.96 83.832 49.96H84.856C86.8187 49.96 88.7813 49.8747 90.744 49.704Z" fill="white"/>
<defs>
<filter id="filter0_d_105_4" x="0" y="5" width="146" height="146" filterUnits="userSpaceOnUse" color-interpolation-filters="sRGB">
<feFlood flood-opacity="0" result="BackgroundImageFix"/>
<feColorMatrix in="SourceAlpha" type="matrix" values="0 0 0 0 0 0 0 0 0 0 0 0 0 0 0 0 0 0 127 0" result="hardAlpha"/>
<feOffset dy="4"/>
<feGaussianBlur stdDeviation="2"/>
<feComposite in2="hardAlpha" operator="out"/>
<feColorMatrix type="matrix" values="0 0 0 0 0 0 0 0 0 0 0 0 0 0 0 0 0 0 0.25 0"/>
<feBlend mode="normal" in2="BackgroundImageFix" result="effect1_dropShadow_105_4"/>
<feBlend mode="normal" in="SourceGraphic" in2="effect1_dropShadow_105_4" result="shape"/>
</filter>
</defs>
</svg>
